<?xml version="1.0" standalone="no"?>
<!DOCTYPE svg PUBLIC "-//W3C//DTD SVG 20010904//EN"
 "http://www.w3.org/TR/2001/REC-SVG-20010904/DTD/svg10.dtd">
<svg version="1.0" xmlns="http://www.w3.org/2000/svg"
 width="259.000000pt" height="194.000000pt" viewBox="0 0 259.000000 194.000000"
 preserveAspectRatio="xMidYMid meet">
<metadata>
Created by potrace 1.16, written by Peter Selinger 2001-2019
</metadata>
<g transform="translate(0.000000,194.000000) scale(0.100000,-0.100000)"
fill="#000000" stroke="none">
<path d="M0 986 c0 -525 3 -961 6 -970 7 -19 60 -22 67 -3 4 9 6 9 6 0 1 -19
347 -19 354 0 4 9 6 9 6 0 1 -9 21 -13 65 -13 42 0 66 4 69 13 4 10 6 10 6 0
1 -19 407 -19 414 0 4 9 8 8 16 -3 10 -13 12 -13 21 0 6 10 10 11 10 3 0 -8
15 -13 39 -13 22 0 42 5 44 13 4 10 6 10 6 0 1 -19 797 -19 804 0 4 9 6 9 6 0
1 -19 441 -19 441 0 0 8 4 7 10 -3 9 -13 11 -13 20 0 6 10 10 11 10 3 0 -7 9
-13 19 -13 11 0 22 6 24 13 4 10 6 10 6 0 1 -9 20 -13 61 -13 l60 0 0 970 0
970 -1295 0 -1295 0 0 -954z"/>
</g>
</svg>
